<svg width="512" height="512" viewBox="0 0 512 512" fill="none" xmlns="http://www.w3.org/2000/svg">
<path fill-rule="evenodd" clip-rule="evenodd" d="M28 345C30 296 47 250 75 213V305C75 315 83 323 93 323H138C148 323 156 315 156 305V170C156 162 151 155 143 153C150 149 158 145 166 142L189 311C190 320 198 326 207 326H305C314 326 322 320 323 311L346 142C354 145 362 149 369 153C361 155 356 162 356 170V310C356 320 364 328 374 328H419C429 328 437 320 437 310V213C465 250 482 296 484 345C412 345 93 345 28 345ZM138 311C141 311 144 308 144 305V170C144 167 141 164 138 164C132 164 113 179 109 183C104 187 87 203 87 210V305C87 308 90 311 93 311H138ZM425 211C423 207 420 203 418 200C413 193 408 187 402 181C395 174 384 164 374 164C371 164 368 167 368 170V310C368 313 371 316 374 316H419C422 316 425 313 425 310V211ZM305 314C308 314 311 312 311 309L335 138C336 130 334 122 328 116C324 111 318 108 312 108H200C194 108 188 111 184 116C178 122 176 130 177 138L201 309C201 312 204 314 207 314H305Z" fill="#FFC510"/>
<path d="M508 370L495 357H17L4 370L3 371C1 373 0 376 0 380C0.993033 392.909 17.7639 395.958 28.7692 397.958L29 398C42 400 60 403 83 404C129 408 191 410 256 410C321 410 383 408 429 404C452 403 470 400 483 398C494 396 512 393 512 379C512 375 510 372 508 370Z" fill="#FFC510"/>
</svg>
