<svg width="202" height="202" viewBox="0 0 202 202" fill="none" xmlns="http://www.w3.org/2000/svg">
<g clip-path="url(#clip0_736_1105)">
<path d="M119.938 0H23.1458C10.3525 0 0 10.3525 0 23.1458V153.604C0 166.398 10.3525 176.75 23.1458 176.75H91.7417C84.6717 165.556 79.9583 152.342 79.9583 137.192V116.655C78.6958 117.413 77.265 117.833 75.75 117.833H33.6667C29.0375 117.833 25.25 114.046 25.25 109.417C25.25 104.788 29.0375 101 33.6667 101H75.75C77.3492 101 78.78 101.421 80.0425 102.178C80.3792 95.0242 83.7458 88.4592 89.0483 84.1667H33.6667C29.0375 84.1667 25.25 80.3792 25.25 75.75C25.25 71.1208 29.0375 67.3333 33.6667 67.3333H109.417C112.952 67.3333 115.982 69.5217 117.244 72.6358L141.232 64.4717C141.821 64.2192 142.41 64.0508 143.083 63.9667V23.1458C143.083 10.3525 132.731 0 119.938 0ZM67.3333 50.5H33.6667C29.0375 50.5 25.25 46.7125 25.25 42.0833C25.25 37.4542 29.0375 33.6667 33.6667 33.6667H67.3333C71.9625 33.6667 75.75 37.4542 75.75 42.0833C75.75 46.7125 71.9625 50.5 67.3333 50.5Z" fill="#FFC510"/>
<path d="M196.293 95.4366L152.106 80.4044C150.347 79.8068 148.436 79.8068 146.677 80.4044L102.49 95.4366C99.081 96.5981 96.7832 99.8048 96.7832 103.407V137.225C96.7832 179.873 144.076 200.477 146.088 201.335C147.149 201.781 148.276 202 149.396 202C150.515 202 151.643 201.781 152.695 201.327C154.707 200.468 202 179.873 202 137.225V103.407C202 99.7964 199.711 96.5981 196.293 95.4366ZM179.275 127.092L154.025 160.758C152.56 162.711 150.33 163.931 147.889 164.1C147.687 164.117 147.485 164.125 147.292 164.125C145.061 164.125 142.923 163.25 141.341 161.659L124.508 144.826C121.217 141.535 121.217 136.215 124.508 132.924C127.799 129.634 133.118 129.634 136.409 132.924L146.383 142.898L165.808 116.992C168.594 113.28 173.871 112.514 177.583 115.308C181.312 118.094 182.069 123.372 179.275 127.092Z" fill="#FFC510"/>
</g>
<defs>
<clipPath id="clip0_736_1105">
<rect width="202" height="202" fill="white"/>
</clipPath>
</defs>
</svg>
