<svg width="512" height="512" viewBox="0 0 512 512" fill="none" xmlns="http://www.w3.org/2000/svg">
<g clip-path="url(#clip0_736_1153)">
<path d="M406.296 90.17H376.237C367.93 90.17 361.207 96.892 361.207 105.2C361.207 113.507 367.929 120.23 376.237 120.23H406.296C414.603 120.23 421.326 113.508 421.326 105.2C421.325 96.892 414.603 90.17 406.296 90.17Z" fill="#FFC510"/>
<path d="M254.416 38.359L239.387 8.3C235.645 0.873 226.647 -2.106 219.22 1.578C211.793 5.291 208.784 14.318 212.498 21.745L227.528 51.804C231.236 59.201 240.218 62.24 247.695 58.526C255.12 54.813 258.129 45.786 254.416 38.359Z" fill="#FFC510"/>
<path d="M352.9 1.578C345.502 -2.106 336.447 0.873996 332.733 8.3L317.703 38.359C313.99 45.786 316.999 54.812 324.425 58.526C331.924 62.25 340.895 59.176 344.592 51.804L359.622 21.745C363.335 14.318 360.326 5.291 352.9 1.578Z" fill="#FFC510"/>
<path d="M195.882 90.17H165.823C157.516 90.17 150.793 96.892 150.793 105.2C150.793 113.507 157.515 120.23 165.823 120.23H195.882C204.189 120.23 210.912 113.508 210.912 105.2C210.912 96.892 204.189 90.17 195.882 90.17Z" fill="#FFC510"/>
<path d="M105.705 241.468H45.5857C37.2857 241.468 30.5557 248.197 30.5557 256.498V496.97C30.5557 505.27 37.2847 512 45.5857 512H105.704C114.004 512 120.734 505.271 120.734 496.97V256.497C120.734 248.197 114.006 241.468 105.705 241.468Z" fill="#FFC510"/>
<path d="M481.145 281.308C478.494 257.993 456.715 241.468 433.25 241.468H316.075C326.033 223.637 331.378 173.204 331.141 152.602C330.748 118.5 302.507 91.172 268.404 91.172H256.002C247.695 91.172 240.972 97.894 240.972 106.202C240.972 140.957 227.439 203.689 201.916 229.213C184.737 246.392 170.051 252.617 150.794 262.241V487.759C180.277 497.586 217.711 512.001 274.768 512.001H373.084C405.479 512.001 430.709 481.998 418.156 450.298C437.281 445.088 451.385 427.548 451.385 406.794C451.385 400.937 450.255 395.331 448.215 390.179C480.444 381.398 492.307 341.603 469.938 316.616C478.156 307.435 482.688 294.877 481.145 281.308Z" fill="#FFC510"/>
</g>
<defs>
<clipPath id="clip0_736_1153">
<rect width="512.001" height="512.001" fill="white"/>
</clipPath>
</defs>
</svg>
