<svg width="512" height="512" viewBox="0 0 512 512" fill="none" xmlns="http://www.w3.org/2000/svg">
<path d="M493.92 416L443.84 329.44C416.776 371.309 376.518 402.953 329.44 419.36L369.12 488C370.53 490.442 372.56 492.467 375.004 493.872C377.449 495.277 380.221 496.011 383.04 496C385.833 495.983 388.572 495.236 390.986 493.832C393.4 492.429 395.404 490.418 396.8 488L424.64 440H480C482.82 440.011 485.592 439.277 488.036 437.872C490.481 436.467 492.511 434.442 493.92 432C495.325 429.568 496.064 426.809 496.064 424C496.064 421.191 495.325 418.432 493.92 416Z" fill="#FFC510"/>
<path d="M68.1601 329.44L18.0801 416C16.6758 418.432 15.9365 421.191 15.9365 424C15.9365 426.809 16.6758 429.568 18.0801 432C19.4898 434.442 21.5196 436.467 23.9641 437.872C26.4085 439.277 29.1808 440.011 32.0001 440H87.3601L115.2 488C116.596 490.418 118.601 492.429 121.015 493.832C123.429 495.236 126.168 495.983 128.96 496C131.779 496.011 134.552 495.277 136.996 493.872C139.441 492.467 141.47 490.442 142.88 488L182.56 419.36C135.483 402.953 95.2244 371.309 68.1601 329.44Z" fill="#FFC510"/>
<path d="M272 167.68L256 135.68L240 167.68C238.842 169.979 237.147 171.965 235.058 173.469C232.968 174.974 230.547 175.951 228 176.32L193.6 181.44L218.56 206.08C220.412 207.878 221.801 210.098 222.609 212.55C223.417 215.002 223.619 217.613 223.2 220.16L217.28 254.72L247.84 238.72C250.178 237.563 252.751 236.962 255.36 236.962C257.968 236.962 260.542 237.563 262.88 238.72L293.44 254.72L288 220.16C287.58 217.613 287.783 215.002 288.59 212.55C289.398 210.098 290.788 207.878 292.64 206.08L317.6 181.44L283.36 176C280.957 175.571 278.684 174.599 276.715 173.157C274.746 171.715 273.133 169.841 272 167.68Z" fill="#FFC510"/>
<path d="M448 208C448 170.026 436.739 132.905 415.642 101.331C394.545 69.7563 364.559 45.1472 329.475 30.6151C294.392 16.0831 255.787 12.2809 218.543 19.6892C181.298 27.0976 147.087 45.3838 120.236 72.2355C93.3839 99.0872 75.0977 133.298 67.6893 170.543C60.281 207.787 64.0832 246.392 78.6152 281.475C93.1472 316.559 117.756 346.545 149.331 367.642C180.905 388.739 218.026 400 256 400C306.922 400 355.758 379.771 391.765 343.764C427.772 307.758 448 258.922 448 208ZM363.2 181.76L321.12 223.04L331.04 281.28C331.611 284.28 331.312 287.38 330.178 290.215C329.044 293.05 327.122 295.502 324.64 297.28C321.939 299.236 318.695 300.298 315.36 300.32C312.734 300.307 310.151 299.647 307.84 298.4L256 270.72L204.16 298.08C201.631 299.318 198.819 299.866 196.01 299.67C193.2 299.473 190.493 298.538 188.16 296.96C185.678 295.182 183.756 292.73 182.622 289.895C181.488 287.06 181.189 283.96 181.76 280.96L191.68 222.72L148.8 181.76C146.643 179.683 145.112 177.043 144.382 174.139C143.651 171.236 143.749 168.185 144.666 165.335C145.583 162.485 147.281 159.949 149.568 158.016C151.854 156.083 154.637 154.83 157.6 154.4L215.68 145.92L241.6 92.96C242.91 90.2549 244.956 87.9735 247.503 86.3772C250.049 84.7809 252.994 83.9342 256 83.9342C259.006 83.9342 261.951 84.7809 264.497 86.3772C267.044 87.9735 269.09 90.2549 270.4 92.96L296.32 145.92L354.4 154.4C357.363 154.83 360.146 156.083 362.433 158.016C364.719 159.949 366.417 162.485 367.334 165.335C368.251 168.185 368.349 171.236 367.619 174.139C366.888 177.043 365.357 179.683 363.2 181.76Z" fill="#FFC510"/>
</svg>
