<svg width="683" height="683" viewBox="0 0 683 683" fill="none" xmlns="http://www.w3.org/2000/svg">
<g clip-path="url(#clip0_736_1125)">
<path d="M341.328 211.275C269.605 211.275 211.256 269.624 211.256 341.343C211.256 413.067 269.605 471.415 341.328 471.415C413.047 471.415 471.396 413.067 471.396 341.343C471.396 269.624 413.047 211.275 341.328 211.275ZM418.552 316.848L325.37 410.03C321.459 413.942 316.328 415.9 311.204 415.9C306.079 415.9 300.954 413.947 297.042 410.03L261.433 374.421C253.61 366.603 253.61 353.921 261.433 346.098C269.25 338.275 281.933 338.275 289.756 346.098L311.204 367.546L390.229 288.525C398.047 280.702 410.729 280.702 418.552 288.525C426.375 296.343 426.375 309.025 418.552 316.848Z" fill="#FFC510"/>
<path d="M631.317 185.223L631.296 184.692C630.999 178.135 630.802 171.197 630.682 163.479C630.124 125.838 600.203 94.7028 562.557 92.5987C484.068 88.2185 423.349 62.6248 371.469 12.0572L371.026 11.6353C354.104 -3.88024 328.578 -3.88024 311.651 11.6353L311.209 12.0572C259.329 62.6248 198.61 88.2185 120.121 92.6039C82.4801 94.7028 52.5531 125.838 51.9958 163.484C51.8813 171.151 51.6781 178.088 51.3813 184.692L51.35 185.927C49.824 265.963 47.9282 365.572 81.251 455.983C99.5738 505.702 127.324 548.92 163.725 584.446C205.183 624.904 259.485 657.024 325.12 679.91C327.256 680.654 329.474 681.259 331.735 681.712C334.922 682.347 338.13 682.665 341.339 682.665C344.547 682.665 347.761 682.347 350.943 681.712C353.203 681.259 355.438 680.649 357.584 679.899C423.141 656.972 477.385 624.837 518.807 584.384C555.192 548.847 582.942 505.618 601.281 455.889C634.729 365.207 632.838 265.411 631.317 185.223ZM341.328 511.473C247.516 511.473 171.199 435.155 171.199 341.343C171.199 247.531 247.516 171.213 341.328 171.213C435.135 171.213 511.458 247.531 511.458 341.343C511.458 435.155 435.135 511.473 341.328 511.473Z" fill="#FFC510"/>
</g>
<defs>
<clipPath id="clip0_736_1125">
<rect width="682.667" height="682.667" fill="white"/>
</clipPath>
</defs>
</svg>
