<svg width="512" height="512" viewBox="0 0 512 512" fill="none" xmlns="http://www.w3.org/2000/svg">
<g clip-path="url(#clip0_736_1115)">
<path d="M320 416H192C183.157 416 176 423.157 176 432V464C176 490.469 197.531 512 224 512H288C314.469 512 336 490.469 336 464V432C336 423.157 328.843 416 320 416Z" fill="#FFC510"/>
<path d="M256 246.688C286.203 246.688 310.688 222.203 310.688 192C310.688 161.797 286.203 137.312 256 137.312C225.796 137.312 201.312 161.797 201.312 192C201.312 222.203 225.796 246.688 256 246.688Z" fill="#FFC510"/>
<path d="M446.24 165.44C434.88 80.16 364.32 11.2 278.72 1.28C223.84 -5.12 168.96 12.32 128.16 48.64C87.36 85.12 64 137.28 64 192C64 264 103.68 329.28 167.52 362.4C172.64 365.12 176 370.56 176 376.48V386.88C180.96 384.96 186.4 384 192 384H320C325.6 384 331.04 384.96 336 386.88V376.48C336 370.56 339.2 365.12 344.48 362.4C417.28 324.64 457.12 247.36 446.24 165.44ZM352 208H341.144C338.89 220.014 334.187 231.166 327.517 240.893L335.187 248.563C341.437 254.813 341.437 264.938 335.187 271.189C332.062 274.314 327.968 275.877 323.875 275.877C319.782 275.877 315.688 274.314 312.563 271.189L304.893 263.518C295.166 270.189 284.014 274.891 272 277.146V288.002C272 296.845 264.843 304.002 256 304.002C247.157 304.002 240 296.845 240 288.002V277.146C227.986 274.891 216.834 270.189 207.107 263.518L199.437 271.189C196.312 274.314 192.218 275.877 188.125 275.877C184.032 275.877 179.938 274.314 176.813 271.189C170.563 264.939 170.563 254.814 176.813 248.563L184.483 240.893C177.813 231.166 173.11 220.014 170.856 208H160C151.157 208 144 200.843 144 192C144 183.157 151.157 176 160 176H170.856C173.11 163.986 177.813 152.834 184.483 143.107L176.813 135.437C170.563 129.187 170.563 119.062 176.813 112.811C183.062 106.56 193.187 106.562 199.438 112.811L207.109 120.482C216.835 113.811 227.987 109.109 240.002 106.854V95.9984C240.002 87.1552 247.158 79.9984 256.002 79.9984C264.845 79.9984 272.002 87.1552 272.002 95.9984V106.854C284.016 109.109 295.168 113.811 304.894 120.482L312.565 112.811C318.814 106.562 328.939 106.562 335.19 112.811C341.442 119.061 341.44 129.186 335.19 135.437L327.52 143.107C334.19 152.834 338.893 163.986 341.147 176H352.003C360.846 176 368.003 183.157 368.003 192C368.003 200.843 360.843 208 352 208Z" fill="#FFC510"/>
<path d="M32 208H16C7.1568 208 0 200.843 0 192C0 183.157 7.1568 176 16 176H32C40.8432 176 48 183.157 48 192C48 200.843 40.8432 208 32 208Z" fill="#FFC510"/>
<path d="M97.61 49.6096C93.5156 49.6096 89.4228 48.0464 86.298 44.9216L74.986 33.6096C68.7364 27.36 68.7364 17.2352 74.986 10.984C81.2356 4.7328 91.3604 4.7344 97.6116 10.984L108.924 22.296C115.173 28.5456 115.173 38.6704 108.924 44.9216C105.799 48.0464 101.703 49.6096 97.61 49.6096Z" fill="#FFC510"/>
<path d="M86.298 377.702C82.2036 377.702 78.1108 376.139 74.986 373.014C68.7364 366.765 68.7364 356.64 74.986 350.389L86.298 339.077C92.5476 332.827 102.672 332.827 108.924 339.077C115.175 345.326 115.173 355.451 108.924 361.702L97.6116 373.014C94.4868 376.139 90.3908 377.702 86.298 377.702Z" fill="#FFC510"/>
<path d="M496 208H480C471.157 208 464 200.843 464 192C464 183.157 471.157 176 480 176H496C504.843 176 512 183.157 512 192C512 200.843 504.843 208 496 208Z" fill="#FFC510"/>
<path d="M414.391 49.6096C410.296 49.6096 406.204 48.0464 403.079 44.9216C396.829 38.672 396.829 28.5472 403.079 22.296L414.391 10.984C420.64 4.73441 430.765 4.73441 437.016 10.984C443.268 17.2336 443.266 27.3584 437.016 33.6096L425.704 44.9216C422.58 48.0464 418.484 49.6096 414.391 49.6096Z" fill="#FFC510"/>
<path d="M425.703 377.702C421.608 377.702 417.516 376.139 414.391 373.014L403.079 361.702C396.829 355.453 396.829 345.328 403.079 339.077C409.328 332.826 419.453 332.827 425.704 339.077L437.016 350.389C443.266 356.638 443.266 366.763 437.016 373.014C433.892 376.139 429.796 377.702 425.703 377.702Z" fill="#FFC510"/>
</g>
<defs>
<clipPath id="clip0_736_1115">
<rect width="512" height="512" fill="white"/>
</clipPath>
</defs>
</svg>
