<svg width="512" height="512" viewBox="0 0 512 512" fill="none" xmlns="http://www.w3.org/2000/svg">
<path fill-rule="evenodd" clip-rule="evenodd" d="M281.645 488.005H230.055C217.458 488.005 207.559 477.807 207.559 465.509V416.919C190.763 412.419 174.566 405.821 159.269 396.823L125.076 431.316C116.077 440.014 101.98 440.014 93.2818 431.316L56.6889 394.723C47.9906 386.025 47.9906 371.927 56.6889 363.229L91.1822 328.736C82.1839 313.739 75.5852 297.542 71.3861 280.745H22.4956C10.198 280.745 0 270.547 0 258.25V209.359L0.299941 209.059H11.9977H18.5964H153.57C138.573 274.746 188.363 337.434 255.85 337.434C323.037 337.434 372.827 275.046 358.13 209.059H485.305H499.402H511.4C512.3 223.756 511.1 243.253 511.1 257.95C511.1 270.547 501.202 280.445 488.605 280.445H440.014C435.515 297.242 428.916 313.439 420.218 328.736L454.411 362.929C463.409 371.627 463.409 386.025 454.411 394.723L418.118 431.316C409.42 440.014 395.023 440.014 386.325 431.316L351.831 396.823C336.834 405.521 320.637 412.419 303.841 416.619V465.509C304.141 477.807 293.943 488.005 281.645 488.005Z" fill="#FFC510"/>
<path fill-rule="evenodd" clip-rule="evenodd" d="M298.141 262.449H262.748V170.067C280.445 167.067 294.242 151.47 294.242 132.874C294.242 112.178 277.445 95.3814 256.749 95.3814C236.054 95.3814 218.957 112.178 218.957 132.874C218.957 151.47 232.754 167.067 250.751 170.067V262.449H215.058C206.959 262.449 200.36 255.85 200.36 247.452C200.36 230.955 205.46 212.059 195.261 204.56C119.076 150.271 151.17 23.9954 256.749 23.9954C362.329 23.9954 394.123 150.571 318.237 204.56C307.74 212.059 313.438 231.555 313.138 247.452C313.138 255.85 306.24 262.449 298.141 262.449Z" fill="#FFC510"/>
<path fill-rule="evenodd" clip-rule="evenodd" d="M275.046 290.343H238.154C227.956 290.343 219.257 282.545 218.357 272.347H260.649H294.842C293.943 282.545 285.244 290.343 275.046 290.343Z" fill="#FFC510"/>
<path fill-rule="evenodd" clip-rule="evenodd" d="M266.048 308.64H247.152C238.753 308.64 232.155 302.041 232.155 293.643C232.155 287.344 230.655 278.346 238.153 278.346C240.553 278.346 281.345 276.546 281.345 284.345V293.643C281.345 302.041 274.446 308.64 266.048 308.64Z" fill="#FFC510"/>
</svg>
