<svg width="32" height="32" viewBox="0 0 32 32" fill="none" xmlns="http://www.w3.org/2000/svg">
<path d="M16 5.5C13.9233 5.5 11.8932 6.11581 10.1665 7.26957C8.4398 8.42332 7.09399 10.0632 6.29927 11.9818C5.50455 13.9004 5.29661 16.0116 5.70176 18.0484C6.1069 20.0852 7.10693 21.9562 8.57538 23.4246C10.0438 24.8931 11.9148 25.8931 13.9516 26.2982C15.9884 26.7034 18.0996 26.4955 20.0182 25.7007C21.9368 24.906 23.5767 23.5602 24.7304 21.8335C25.8842 20.1068 26.5 18.0767 26.5 16C26.497 13.2162 25.3897 10.5472 23.4213 8.57874C21.4528 6.61026 18.7838 5.50304 16 5.5ZM20.78 19.62C20.6869 19.7379 20.5685 19.8333 20.4334 19.8991C20.2984 19.9649 20.1502 19.9994 20 20C19.7739 20.0018 19.5543 19.9239 19.3799 19.78L15.3799 16.78C15.2621 16.6868 15.1668 16.5683 15.101 16.4333C15.0353 16.2983 15.0007 16.1502 15 16V9C15 8.73478 15.1054 8.48043 15.2929 8.29289C15.4804 8.10536 15.7348 8 16 8C16.2652 8 16.5196 8.10536 16.7071 8.29289C16.8946 8.48043 17 8.73478 17 9V15.52L20.6201 18.22C20.7242 18.3002 20.8111 18.4005 20.8757 18.5149C20.9403 18.6294 20.9813 18.7556 20.9962 18.8862C21.0111 19.0167 20.9997 19.149 20.9625 19.275C20.9254 19.4011 20.8633 19.5184 20.78 19.62Z" fill="#FFC510"/>
<path d="M16 1C13.0333 1 10.1332 1.87973 7.66645 3.52796C5.19972 5.17618 3.27713 7.51886 2.14181 10.2597C1.0065 13.0006 0.709449 16.0166 1.28823 18.9264C1.86701 21.8361 3.29562 24.5088 5.3934 26.6066C7.49119 28.7044 10.1639 30.133 13.0737 30.7118C15.9834 31.2906 18.9994 30.9935 21.7403 29.8582C24.4812 28.7229 26.8238 26.8003 28.4721 24.3336C30.1203 21.8668 31 18.9667 31 16C30.9952 12.0232 29.4133 8.21074 26.6013 5.39874C23.7893 2.58674 19.9768 1.00484 16 1ZM16 28.5667C13.5146 28.5667 11.0849 27.8296 9.01835 26.4488C6.95177 25.0679 5.34108 23.1053 4.38994 20.809C3.4388 18.5128 3.18993 15.9861 3.67482 13.5484C4.15971 11.1107 5.35657 8.87151 7.11404 7.11404C8.87152 5.35656 11.1107 4.1597 13.5484 3.67481C15.9861 3.18993 18.5128 3.43879 20.8091 4.38993C23.1053 5.34107 25.068 6.95177 26.4488 9.01834C27.8296 11.0849 28.5667 13.5146 28.5667 16C28.5634 19.3319 27.2384 22.5264 24.8824 24.8824C22.5264 27.2384 19.3319 28.5634 16 28.5667Z" fill="#FFC510"/>
</svg>
