<svg width="22" height="22" viewBox="0 0 22 22" fill="none" xmlns="http://www.w3.org/2000/svg">
<path d="M17.4453 1.33203H12.2891C9.80156 1.33203 7.77734 3.35625 7.77734 5.84375C7.77734 8.11284 9.46107 9.99608 11.6445 10.3095V12.2891C11.6445 12.5496 11.8012 12.785 12.0423 12.8845C12.2801 12.9837 12.5589 12.9305 12.7448 12.7447L15.1341 10.3555H17.4453C19.9328 10.3555 22 8.33125 22 5.84375C22 3.35625 19.9328 1.33203 17.4453 1.33203ZM12.2891 6.48819C11.933 6.48819 11.6445 6.19962 11.6445 5.84366C11.6445 5.48771 11.933 5.19913 12.2891 5.19913C12.645 5.19913 12.9336 5.48771 12.9336 5.84366C12.9336 6.19962 12.645 6.48819 12.2891 6.48819ZM14.8672 6.48819C14.5111 6.48819 14.2227 6.19962 14.2227 5.84366C14.2227 5.48771 14.5111 5.19913 14.8672 5.19913C15.2231 5.19913 15.5117 5.48771 15.5117 5.84366C15.5117 6.19962 15.2231 6.48819 14.8672 6.48819ZM17.4453 6.48819C17.0893 6.48819 16.8008 6.19962 16.8008 5.84366C16.8008 5.48771 17.0893 5.19913 17.4453 5.19913C17.8013 5.19913 18.0898 5.48771 18.0898 5.84366C18.0898 6.19962 17.8013 6.48819 17.4453 6.48819Z" fill="#FFC510"/>
<path d="M14.4805 20.668C15.5467 20.668 16.4141 19.8006 16.4141 18.7344V16.1562C16.4141 15.8787 16.2366 15.6325 15.9735 15.5451L12.1153 14.256C11.9265 14.1924 11.7201 14.2214 11.5539 14.3309L9.91362 15.4242C8.17639 14.5959 6.11505 12.5345 5.2867 10.7973L6.38 9.15698C6.49013 8.99143 6.51784 8.78436 6.4549 8.59555L5.16583 4.73743C5.07839 4.47438 4.83227 4.29688 4.55469 4.29688H1.93359C0.867367 4.29688 0 5.15518 0 6.2214C0 13.6473 7.05452 20.668 14.4805 20.668Z" fill="#FFC510"/>
</svg>
