<svg width="75" height="75" viewBox="0 0 75 75" fill="none" xmlns="http://www.w3.org/2000/svg">
<path d="M31.8516 63.3281C31.7109 63.3984 31.5703 63.4688 31.4062 63.5391C31.1016 63.6797 30.7969 63.7266 30.4688 63.7266C30.1406 63.7266 29.8359 63.6563 29.5313 63.5391C18 58.5 10.5469 47.1094 10.5469 34.5234V21.6797C10.5469 20.7656 11.0859 19.9219 11.9297 19.5469L29.5078 11.5547C30.1172 11.2734 30.8203 11.2734 31.4531 11.5547L49.0313 19.5469C49.875 19.9219 50.4141 20.7656 50.4141 21.6797V25.8984C51.1875 25.8281 51.9609 25.7812 52.7578 25.7812C54.7734 25.7812 56.7422 26.0625 58.6172 26.5078V16.4062C58.6172 15.4922 58.0781 14.6484 57.2344 14.2734L31.4297 2.55469C30.8203 2.27344 30.1172 2.27344 29.4844 2.55469L3.72656 14.2734C2.88281 14.6484 2.34375 15.4922 2.34375 16.4062V34.5234C2.34375 50.5312 11.8594 64.9453 26.6016 71.2031L29.5547 72.4688C29.8594 72.5859 30.1641 72.6562 30.4688 72.6562C30.7734 72.6562 31.1016 72.5859 31.3828 72.4688L34.3359 71.2031C35.4141 70.7344 36.4688 70.2187 37.5 69.6797C35.2734 67.8984 33.3516 65.7656 31.8516 63.3281Z" fill="#FFC510"/>
<path d="M45.7031 26.8125V23.2031L30.4688 16.2891L15.2344 23.2031V34.5234C15.2344 44.5078 20.7422 53.6016 29.4375 58.2656C28.5938 55.7812 28.125 53.1328 28.125 50.3906C28.125 39.2578 35.5547 29.8594 45.7031 26.8125Z" fill="#FFC510"/>
<path d="M52.7344 30.4688C41.7422 30.4688 32.8125 39.3984 32.8125 50.3906C32.8125 61.3828 41.7422 70.3125 52.7344 70.3125C63.7266 70.3125 72.6562 61.3828 72.6562 50.3906C72.6562 39.3984 63.7266 30.4688 52.7344 30.4688ZM62.1797 47.1797L52.5469 56.9063C52.1016 57.3516 51.5156 57.6094 50.8828 57.6094C50.2734 57.6094 49.6641 57.3516 49.2188 56.9297L43.2891 51C42.375 50.0859 42.375 48.6094 43.2891 47.6719C44.2031 46.7578 45.6797 46.7578 46.6172 47.6719L50.8828 51.9375L58.8516 43.8984C59.7656 42.9844 61.2422 42.9609 62.1563 43.8984C63.0703 44.8125 63.0938 46.2891 62.1563 47.2031L62.1797 47.1797Z" fill="#1D242D"/>
</svg>
