<svg width="18" height="19" viewBox="0 0 18 19" fill="none" xmlns="http://www.w3.org/2000/svg">
<path d="M15.3438 3.32812C16.9844 4.96875 18 7.11719 18 9.46094C18 14.2266 14.0156 18.1328 9.21094 18.1328C7.76562 18.1328 6.35938 17.7422 5.07031 17.0781L0.5 18.25L1.71094 13.7578C0.96875 12.4688 0.539062 10.9844 0.539062 9.42188C0.539062 4.65625 4.44531 0.75 9.21094 0.75C11.5547 0.75 13.7422 1.6875 15.3438 3.32812ZM9.21094 16.6484C13.1953 16.6484 16.5156 13.4062 16.5156 9.46094C16.5156 7.50781 15.6953 5.71094 14.3281 4.34375C12.9609 2.97656 11.1641 2.23438 9.25 2.23438C5.26562 2.23438 2.02344 5.47656 2.02344 9.42188C2.02344 10.7891 2.41406 12.1172 3.11719 13.2891L3.3125 13.5625L2.57031 16.2188L5.30469 15.4766L5.53906 15.6328C6.67188 16.2969 7.92188 16.6484 9.21094 16.6484ZM13.1953 11.2578C13.3906 11.375 13.5469 11.4141 13.5859 11.5312C13.6641 11.6094 13.6641 12.0391 13.4688 12.5469C13.2734 13.0547 12.4141 13.5234 12.0234 13.5625C11.3203 13.6797 10.7734 13.6406 9.40625 13.0156C7.21875 12.0781 5.8125 9.89062 5.69531 9.77344C5.57812 9.61719 4.83594 8.60156 4.83594 7.50781C4.83594 6.45312 5.38281 5.94531 5.57812 5.71094C5.77344 5.47656 6.00781 5.4375 6.16406 5.4375C6.28125 5.4375 6.4375 5.4375 6.55469 5.4375C6.71094 5.4375 6.86719 5.39844 7.0625 5.82812C7.21875 6.25781 7.6875 7.3125 7.72656 7.42969C7.76562 7.54688 7.80469 7.66406 7.72656 7.82031C7.33594 8.64062 6.86719 8.60156 7.10156 8.99219C7.96094 10.4375 8.78125 10.9453 10.0703 11.5703C10.2656 11.6875 10.3828 11.6484 10.5391 11.5312C10.6562 11.375 11.0859 10.8672 11.2031 10.6719C11.3594 10.4375 11.5156 10.4766 11.7109 10.5547C11.9062 10.6328 12.9609 11.1406 13.1953 11.2578Z" fill="white"/>
</svg>
